<svg width="272" height="200" viewBox="0 0 272 200" fill="none" xmlns="http://www.w3.org/2000/svg">
<g opacity="0.2">
<path fill-rule="evenodd" clip-rule="evenodd" d="M0.804565 110.434C0.804565 133.465 9.24147 154.453 23.125 170.315C39.0525 188.517 62.149 199.962 87.894 200C99.1456 200.016 109.904 197.841 119.786 193.869C124.896 191.814 130.615 192.05 135.564 194.484C141.369 197.335 147.869 198.934 154.733 198.934C157.568 198.934 160.345 198.659 163.031 198.138C170.698 196.654 177.675 193.144 183.404 188.171C187.005 185.045 191.617 183.474 196.33 183.479H196.41C211.985 183.479 226.452 178.628 238.463 170.315C249.2 162.892 257.969 152.706 263.811 140.745C268.905 130.323 271.772 118.549 271.772 106.088C271.772 63.3485 238.029 28.6963 196.41 28.6963C192.168 28.6963 188.011 29.0643 183.955 29.751C173.218 11.9 153.989 0 132.054 0C122.793 0 114.013 2.12094 106.154 5.9229C98.6798 9.52685 92.0347 14.6479 86.5988 20.8889C68.1408 21.1911 51.0736 27.3833 37.1046 37.7175C15.1159 53.9751 0.804565 80.4902 0.804565 110.434Z" fill="url(#paint0_linear_0_2232)"/>
</g>
<path opacity="0.05" d="M166.211 114.551C164.942 116.036 163.572 116.011 162.755 115.801L162.785 115.032C162.785 115.032 166.161 113.514 166.075 113.833C166.042 113.953 166.107 114.24 166.211 114.551Z" fill="#FF4842"/>
<path opacity="0.05" d="M175.461 116.231C173.306 117.457 172.042 116.02 171.748 115.613C171.929 115.147 172.201 114.389 172.145 114.173C172.064 113.853 175.434 115.371 175.434 115.371L175.461 116.231Z" fill="#FF4842"/>
<path opacity="0.05" d="M173.153 104.002C173.153 104.002 175.204 102.84 175.651 103.363C176.098 103.886 173.153 104.002 173.153 104.002Z" fill="#FF4842"/>
<path opacity="0.05" d="M174.392 104.642C174.392 104.642 174.054 104.808 174.799 105.02C175.543 105.233 174.392 104.642 174.392 104.642Z" fill="#FF4842"/>
<path opacity="0.05" d="M161.992 101.445C161.922 101.464 163.698 102.624 165.301 101.664C165.295 101.664 162.392 101.325 161.992 101.445Z" fill="#FF4842"/>
<path opacity="0.05" d="M165.214 103.661C165.214 103.661 164.728 104.601 163.732 104.741C162.736 104.88 165.214 103.661 165.214 103.661Z" fill="#FF4842"/>
<path opacity="0.05" d="M171.732 105.701C171.732 105.701 174.067 109.355 173.62 110.217C173.173 111.079 171.732 105.701 171.732 105.701Z" fill="#FF4842"/>
<path opacity="0.05" d="M167.122 120.231C167.122 120.436 167.122 120.627 167.102 120.785C167.041 121.524 165.193 121.245 165.193 121.245C163.506 121.476 162.898 120.678 162.697 119.916C162.634 119.668 162.603 119.414 162.604 119.158C162.603 119.006 162.613 118.854 162.635 118.703V118.552C162.998 118.444 163.393 118.524 163.684 118.763C164.435 119.363 165.431 118.903 165.431 118.903C165.431 118.903 166.162 118.962 166.444 119.202C166.603 119.336 166.864 119.012 167.063 118.703C167.075 118.903 167.094 119.263 167.105 119.648C167.119 119.846 167.122 120.045 167.122 120.231Z" fill="#FF4842"/>
<path opacity="0.05" d="M164.159 120.188C164.159 120.188 163.652 120.677 162.697 119.922C162.634 119.675 162.603 119.42 162.604 119.165C163.092 119.53 163.997 120.188 164.159 120.188Z" fill="#FF4842"/>
<path opacity="0.05" d="M167.123 120.231C167.039 120.294 166.933 120.321 166.829 120.305C166.726 120.288 166.633 120.23 166.574 120.145C166.771 119.997 166.952 119.83 167.114 119.646C167.119 119.846 167.123 120.045 167.123 120.231Z" fill="#FF4842"/>
<path opacity="0.05" d="M171.084 120.573C171.084 120.779 171.084 120.97 171.102 121.126C171.163 121.867 173.011 121.586 173.011 121.586C174.699 121.819 175.306 121.022 175.507 120.258C175.607 119.861 175.628 119.449 175.57 119.045V118.894C175.205 118.788 174.811 118.867 174.518 119.105C173.767 119.704 172.773 119.244 172.773 119.244C172.773 119.244 172.042 119.306 171.761 119.545C171.602 119.68 171.34 119.356 171.143 119.047C171.131 119.246 171.111 119.606 171.099 119.992C171.085 120.186 171.082 120.385 171.084 120.573Z" fill="#FF4842"/>
<path opacity="0.05" d="M174.047 120.527C174.047 120.527 174.554 121.016 175.507 120.262C175.571 120.015 175.603 119.761 175.602 119.506C175.112 119.87 174.208 120.527 174.047 120.527Z" fill="#FF4842"/>
<path opacity="0.05" d="M171.084 120.573C171.167 120.636 171.273 120.663 171.376 120.646C171.48 120.63 171.572 120.572 171.631 120.487C171.433 120.339 171.252 120.172 171.091 119.988C171.085 120.186 171.082 120.385 171.084 120.573Z" fill="#FF4842"/>
<g opacity="0.05">
<path d="M181.232 59.0384C181.267 58.962 181.301 58.8856 181.333 58.8108C181.365 58.7361 181.377 58.6946 181.396 58.6348C181.334 58.7662 181.279 58.901 181.232 59.0384Z" fill="#FF4842"/>
</g>
<path fill-rule="evenodd" clip-rule="evenodd" d="M89.7681 155.256C89.3591 154.771 89.1716 154.142 89.25 153.517L96.6997 93.528L97.3174 88.5451C97.4606 87.3985 98.4457 86.5343 99.6195 86.5254L121.44 86.3826C122.068 86.3788 122.668 86.1264 123.104 85.6823C123.54 85.2382 123.777 84.6399 123.759 84.0224L123.751 83.7948C123.729 83.172 123.966 82.5673 124.406 82.1192C124.846 81.6711 125.452 81.4181 126.085 81.418H149.015C150.302 81.418 151.346 82.4434 151.349 83.7101C151.349 83.8134 151.342 83.9166 151.329 84.019C151.241 84.6655 151.436 85.3184 151.866 85.8146C152.297 86.3108 152.921 86.6037 153.584 86.6201L175.605 87.1732C176.283 87.1896 176.92 87.4952 177.35 88.0106C177.78 88.5259 177.962 89.1999 177.847 89.8573L166.837 153.14L166.63 154.336C166.578 154.641 166.464 154.933 166.292 155.193L89.7681 155.256Z" fill="#005249"/>
<rect width="12.8286" height="43.2959" transform="matrix(0.826958 0.562264 -0.574576 0.818451 156.224 68.709)" fill="white"/>
<rect width="9.0564" height="9.00605" transform="matrix(0.825355 0.564615 -0.57693 0.816794 156.989 70.3877)" fill="#FFC107"/>
<rect opacity="0.5" width="9.06903" height="9.01784" transform="matrix(0.826958 0.562264 -0.574576 0.818451 151.133 79.2529)" fill="#FFC107"/>
<rect opacity="0.3" width="9.06903" height="9.01784" transform="matrix(0.826958 0.562264 -0.574576 0.818451 144.876 88.1631)" fill="#FFC107"/>
<rect width="12.8784" height="42.9624" transform="matrix(0.961046 0.27639 -0.284659 0.958629 141.235 66.4893)" fill="white"/>
<rect width="9.10421" height="8.9823" transform="matrix(0.961046 0.27639 -0.284659 0.958629 142.861 67.6787)" fill="#FF4842"/>
<rect opacity="0.5" width="9.1042" height="8.9823" transform="matrix(0.961046 0.27639 -0.284659 0.958629 139.773 78.0742)" fill="#FF4842"/>
<rect opacity="0.3" width="9.10422" height="8.9823" transform="matrix(0.961046 0.276389 -0.28466 0.958629 136.686 88.4678)" fill="#FF4842"/>
<rect width="12.8931" height="42.912" transform="matrix(0.99688 0.0789339 -0.0814839 0.996675 132.468 67.1387)" fill="white"/>
<rect width="9.11458" height="8.97178" transform="matrix(0.99688 0.0789341 -0.0814838 0.996675 134.298 67.9805)" fill="#1890FF"/>
<rect opacity="0.5" width="9.11458" height="8.97178" transform="matrix(0.99688 0.0789341 -0.0814838 0.996675 133.414 78.7734)" fill="#1890FF"/>
<rect opacity="0.3" width="9.1146" height="8.97178" transform="matrix(0.99688 0.078934 -0.0814839 0.996675 132.532 89.5693)" fill="#1890FF"/>
<rect width="12.894" height="42.909" transform="matrix(0.998995 -0.0448159 0.0462703 0.998929 126.686 68.8584)" fill="white"/>
<rect width="9.11523" height="8.97113" transform="matrix(0.998995 -0.044816 0.0462703 0.998929 128.606 69.4648)" fill="#00AB55"/>
<rect opacity="0.5" width="9.12654" height="8.98239" transform="matrix(0.998792 -0.0491469 0.050741 0.998712 129.464 79.9404)" fill="#00AB55"/>
<rect opacity="0.3" width="9.11523" height="8.97113" transform="matrix(0.998995 -0.044816 0.0462703 0.998929 129.608 91.1025)" fill="#00AB55"/>
<path d="M132.156 125.403L120.699 129.765L103.955 136.134C103.322 134.972 102.391 133.401 101.238 131.525C97.2718 125.058 90.7098 114.997 84.8668 106.156C78.2846 96.1901 72.6188 87.7807 72.6188 87.7807L76.7201 86.618L110.222 77.0459L132.156 125.403Z" fill="#F4F6F8"/>
<path opacity="0.1" d="M132.156 125.403L120.699 129.765C114.299 131.077 107.769 131.668 101.233 131.525C97.2666 125.058 90.7047 114.997 84.8617 106.156L76.7217 86.6114L110.222 77.0459L132.156 125.403Z" fill="black"/>
<path d="M140.679 122.69C140.679 122.69 122.882 133.051 96.3097 130.707L75.1268 79.8821L85.2786 78.1647L120.374 72.2334L140.289 121.702L140.679 122.69Z" fill="#00AB55"/>
<path opacity="0.1" d="M140.282 121.708C136.092 121.91 131.243 121.89 126.365 121.317C121.086 120.706 115.776 119.447 111.224 117.138C107.419 115.21 104.165 113.112 101.327 110.596C93.947 104.063 89.3799 94.7187 85.2787 78.1705L120.374 72.2393L140.282 121.708Z" fill="#FF4842"/>
<path d="M153.339 118.866C153.339 118.866 140.22 121.394 126.867 119.837C121.587 119.226 116.278 117.967 111.726 115.658C107.92 113.73 104.668 111.632 101.829 109.116C92.6948 101.029 87.8712 88.6346 82.8974 63.6056C82.8974 63.6056 104.706 68.7861 126.272 57.4385C126.266 57.4468 133.535 102.09 153.339 118.866Z" fill="white"/>
<path opacity="0.3" d="M94.1782 72.7946C94.1782 72.7946 111.913 71.808 116.865 68.0459L117.616 70.4211C117.616 70.4211 105.898 75.5086 94.1782 75.57V72.7946Z" fill="#00AB55"/>
<path opacity="0.3" d="M94.1782 84.521C94.1782 84.521 111.349 83.5958 124.323 77.4287L124.762 78.4153C124.762 78.4153 114.467 84.33 94.1782 85.878L94.1782 84.521Z" fill="#00AB55"/>
<path opacity="0.3" d="M95.5604 89.0903C95.5604 89.0903 112.732 88.1652 125.704 81.998L126.142 82.9847C126.142 82.9847 115.847 88.8977 95.5604 90.4473L95.5604 89.0903Z" fill="#00AB55"/>
<path opacity="0.3" d="M96.9407 93.6655C96.9407 93.6655 114.112 92.7404 127.086 86.5732L127.523 87.5598C127.523 87.5598 117.227 93.4745 96.9407 95.0225L96.9407 93.6655Z" fill="#00AB55"/>
<path opacity="0.3" d="M98.3235 98.2417C98.3235 98.2417 115.495 97.3165 128.467 91.1494L128.906 92.136C128.906 92.136 118.61 98.0507 98.3235 99.5987L98.3235 98.2417Z" fill="#00AB55"/>
<path opacity="0.3" d="M99.7039 102.82C99.7039 102.82 116.875 101.895 129.849 95.7275L130.286 96.7141C130.286 96.7141 119.991 102.627 99.7039 104.177V102.82Z" fill="#00AB55"/>
<path d="M220.44 159.636C220.44 159.636 213.304 159.213 214.145 164.134C214.145 164.134 213.976 165.003 214.78 165.398C214.78 165.398 214.791 165.033 215.51 165.157C215.767 165.2 216.027 165.212 216.287 165.194C216.637 165.171 216.969 165.035 217.234 164.808V164.808C217.234 164.808 219.24 163.993 220.02 160.767C220.02 160.767 220.597 160.063 220.574 159.882L219.37 160.38C219.37 160.38 219.782 161.236 219.458 161.945C219.458 161.945 219.419 160.412 219.188 160.45C219.141 160.45 218.562 160.746 218.562 160.746C218.562 160.746 219.269 162.24 218.731 163.317C218.731 163.317 218.933 161.481 218.336 160.854L217.492 161.34C217.492 161.34 218.319 162.878 217.758 164.134C217.758 164.134 217.902 162.209 217.313 161.458L216.545 162.048C216.545 162.048 217.323 163.564 216.849 164.606C216.849 164.606 216.786 162.363 216.378 162.194C216.378 162.194 215.703 162.777 215.605 163.024C215.605 163.024 216.137 164.124 215.806 164.705C215.806 164.705 215.603 163.21 215.438 163.21C215.438 163.21 214.763 164.207 214.699 164.871C214.699 164.871 214.727 163.862 215.276 163.109C214.889 163.182 214.533 163.364 214.25 163.632C214.25 163.632 214.354 162.931 215.441 162.872C215.441 162.872 215.995 162.121 216.142 162.074C216.142 162.074 215.061 161.986 214.407 162.272C214.407 162.272 214.984 161.608 216.341 161.912L217.099 161.304C217.099 161.304 215.676 161.111 215.073 161.324C215.073 161.324 215.767 160.739 217.303 161.158L218.128 160.673C218.128 160.673 216.916 160.415 216.194 160.506C216.194 160.506 216.955 160.101 218.371 160.54L218.96 160.279C218.96 160.279 218.072 160.113 217.812 160.08C217.553 160.046 217.537 159.983 217.537 159.983C218.1 159.89 218.678 159.953 219.207 160.166C219.207 160.166 220.461 159.714 220.44 159.636Z" fill="#00AB55"/>
<ellipse opacity="0.1" cx="215.526" cy="165.826" rx="5.04974" ry="0.840446" fill="#00AB55"/>
<path d="M223.763 143.39C223.763 143.39 219.741 143.151 220.219 145.926C220.169 146.215 220.312 146.502 220.575 146.639C220.575 146.639 220.584 146.433 220.989 146.503C221.133 146.526 221.28 146.533 221.426 146.523C221.623 146.51 221.81 146.434 221.959 146.307V146.307C221.959 146.307 223.09 145.847 223.53 144.028C223.53 144.028 223.856 143.631 223.843 143.529L223.168 143.813C223.168 143.813 223.399 144.297 223.217 144.697C223.217 144.697 223.195 143.832 223.065 143.852C223.038 143.852 222.712 144.018 222.712 144.018C222.712 144.018 223.11 144.848 222.81 145.468C222.81 145.468 222.925 144.433 222.587 144.078L222.109 144.353C222.109 144.353 222.575 145.22 222.26 145.928C222.26 145.928 222.341 144.842 222.008 144.42L221.576 144.752C221.576 144.752 222.013 145.607 221.745 146.194C221.745 146.194 221.709 144.93 221.48 144.835C221.316 144.972 221.169 145.127 221.043 145.298C221.043 145.298 221.343 145.92 221.157 146.247C221.157 146.247 221.043 145.405 220.95 145.401C220.95 145.401 220.572 145.958 220.533 146.34C220.551 145.985 220.664 145.642 220.859 145.343C220.64 145.384 220.439 145.487 220.28 145.639C220.28 145.639 220.339 145.244 220.955 145.21C220.955 145.21 221.267 144.787 221.35 144.76C221.35 144.76 220.741 144.71 220.371 144.872C220.371 144.872 220.697 144.499 221.461 144.669L221.89 144.325C221.89 144.325 221.087 144.217 220.747 144.337C220.747 144.337 221.139 144.004 222.005 144.247L222.471 143.973C222.112 143.896 221.745 143.865 221.379 143.882C221.379 143.882 221.809 143.652 222.606 143.9L222.943 143.754C222.943 143.754 222.437 143.656 222.295 143.641C222.153 143.626 222.14 143.586 222.14 143.586C222.457 143.534 222.783 143.57 223.082 143.689C223.082 143.689 223.777 143.433 223.763 143.39Z" fill="#00AB55"/>
<ellipse opacity="0.1" cx="220.995" cy="146.88" rx="2.84724" ry="0.473381" fill="#00AB55"/>
<path d="M200.02 145.798C200.02 145.798 195.163 145.509 195.737 148.859C195.676 149.208 195.849 149.555 196.167 149.72C196.167 149.72 196.167 149.471 196.673 149.554C196.848 149.583 197.025 149.591 197.202 149.579C197.44 149.563 197.667 149.471 197.846 149.316V149.316C197.846 149.316 199.212 148.761 199.743 146.566C199.743 146.566 200.137 146.087 200.12 145.963L199.291 146.308C199.291 146.308 199.571 146.889 199.35 147.373C199.35 147.373 199.323 146.33 199.166 146.353C199.134 146.353 198.741 146.556 198.741 146.556C198.741 146.556 199.222 147.569 198.859 148.306C198.859 148.306 198.997 147.057 198.591 146.629L198.014 146.961C198.014 146.961 198.576 148.009 198.194 148.863C198.194 148.863 198.292 147.552 197.892 147.036L197.369 147.438C197.369 147.438 197.899 148.469 197.575 149.178C197.575 149.178 197.534 147.652 197.256 147.537C197.256 147.537 196.798 147.934 196.729 148.097C196.729 148.097 197.09 148.846 196.866 149.241C196.866 149.241 196.727 148.225 196.614 148.22C196.614 148.22 196.16 148.894 196.108 149.354C196.131 148.928 196.266 148.514 196.501 148.155C196.238 148.204 195.996 148.329 195.804 148.512C195.804 148.512 195.875 148.036 196.614 147.994C196.614 147.994 196.991 147.482 197.092 147.453C197.092 147.453 196.356 147.391 195.911 147.585C195.911 147.585 196.302 147.137 197.225 147.341L197.742 146.926C197.742 146.926 196.775 146.796 196.363 146.939C196.363 146.939 196.835 146.542 197.882 146.833L198.444 146.501C198.444 146.501 197.619 146.326 197.126 146.39C197.126 146.39 197.646 146.114 198.608 146.413L199.009 146.235C199.009 146.235 198.405 146.119 198.228 146.101C198.051 146.082 198.042 146.034 198.042 146.034C198.425 145.97 198.818 146.013 199.178 146.157C199.178 146.157 200.035 145.85 200.02 145.798Z" fill="#00AB55"/>
<ellipse opacity="0.1" cx="196.675" cy="150.012" rx="3.43794" ry="0.571381" fill="#00AB55"/>
<rect width="28.3916" height="51.4695" rx="4.73723" transform="matrix(0.313683 -0.949528 0.952437 0.304734 157.815 69.4531)" fill="white"/>
<g opacity="0.2">
<ellipse cx="172.199" cy="57.5047" rx="5.29279" ry="5.20876" fill="#00AB55"/>
</g>
<g opacity="0.2">
<rect width="1.42898" height="23.025" transform="matrix(0.313683 -0.949528 0.952437 0.304734 184.863 56.5664)" fill="#00AB55"/>
</g>
<g opacity="0.2">
<rect width="1.42898" height="11.729" transform="matrix(0.313682 -0.949528 0.952437 0.304735 183.72 60.0254)" fill="#00AB55"/>
</g>
<g opacity="0.2">
<rect width="1.42898" height="18.9703" transform="matrix(0.313682 -0.949528 0.952437 0.304735 182.575 63.4873)" fill="#00AB55"/>
</g>
<g opacity="0.2">
<rect width="1.42898" height="23.0249" transform="matrix(0.313683 -0.949528 0.952438 0.304734 181.432 66.9473)" fill="#00AB55"/>
</g>
<g opacity="0.5">
<rect width="2.76314" height="6.37177" transform="matrix(0.313682 -0.949528 0.952437 0.304735 195.225 78.2861)" fill="#00AB55"/>
</g>
<rect width="28.0772" height="44.0002" rx="4" transform="matrix(0.546885 -0.837207 0.845079 0.534642 153.317 118.679)" fill="white"/>
<rect width="7.94303" height="1.88169" transform="matrix(0.542388 -0.840128 0.847896 0.530163 158.827 117.039)" fill="#DFE3E8"/>
<rect width="17.4446" height="1.72545" transform="matrix(0.542388 -0.840128 0.847896 0.530163 163.927 118.391)" fill="#DFE3E8"/>
<rect width="17.4446" height="1.72545" transform="matrix(0.542388 -0.840128 0.847896 0.530163 167.052 120.344)" fill="#DFE3E8"/>
<rect width="17.4447" height="1.72545" transform="matrix(0.542387 -0.840128 0.847895 0.530164 170.177 122.299)" fill="#DFE3E8"/>
<rect width="17.4216" height="1.7229" transform="matrix(0.546886 -0.837207 0.845079 0.534641 173.409 125.132)" fill="#DFE3E8"/>
<rect width="17.4446" height="1.72545" transform="matrix(0.542388 -0.840128 0.847896 0.530163 176.426 126.206)" fill="#F4F6F8"/>
<rect width="17.4447" height="1.72545" transform="matrix(0.542388 -0.840128 0.847896 0.530163 179.551 128.158)" fill="#F4F6F8"/>
<rect width="4.51719" height="4.54799" transform="matrix(0.542388 -0.840128 0.847896 0.530163 192.672 119.833)" fill="#DFE3E8"/>
<path d="M152.816 93.7559L126.98 94.03C126.013 94.04 125.234 94.8139 125.233 95.7657V97.8668C125.232 98.8091 124.469 99.5791 123.511 99.6025L104.869 100.043C104.056 100.063 103.334 99.5331 103.122 98.7604L102.246 95.593C102.036 94.8288 101.327 94.3014 100.523 94.3107L75.6199 94.5748C75.1035 94.5798 74.6153 94.8072 74.2841 95.1971C73.9529 95.587 73.8119 96.1001 73.8984 96.6012L83.9169 154.628C84.0605 155.461 84.7919 156.072 85.6502 156.075L164.323 156.407C164.85 156.409 165.35 156.179 165.687 155.78C166.024 155.38 166.162 154.854 166.063 154.344L154.566 95.1661C154.406 94.3413 153.669 93.7475 152.816 93.7559V93.7559Z" fill="url(#paint1_linear_0_2232)"/>
<ellipse opacity="0.1" cx="68.3167" cy="143.702" rx="2.73584" ry="0.370407" fill="#00AB55"/>
<ellipse opacity="0.1" cx="57.8376" cy="144.747" rx="2.73584" ry="0.370407" fill="#00AB55"/>
<ellipse opacity="0.1" cx="62.0315" cy="147.725" rx="1.94428" ry="0.262421" fill="#00AB55"/>
<ellipse opacity="0.1" cx="51.156" cy="147.463" rx="1.94428" ry="0.262428" fill="#00AB55"/>
<path d="M57.7786 144.665C57.7786 144.665 61.6149 132.288 57.1778 127.33C53.858 123.621 50.0892 124.065 48.4015 124.523C47.5183 124.755 46.7829 125.357 46.3897 126.169C45.799 127.421 45.9053 129.454 50.0707 131.828C57.0428 135.801 57.4765 141.25 57.4765 141.25L57.7786 144.665Z" fill="#00AB55"/>
<path d="M49.0041 126.279C49.0041 126.279 60.312 129.767 57.7804 144.666" stroke="#005249" stroke-width="0.5" stroke-linecap="round"/>
<path d="M55.6095 127.526C55.6095 127.526 54.0518 128.559 54.5479 130.112" stroke="#005249" stroke-width="0.5" stroke-linecap="round"/>
<path d="M50.1384 128.447C50.1384 128.447 51.0903 127.493 52.2497 128.02" stroke="#005249" stroke-width="0.5" stroke-linecap="round"/>
<path d="M54.6086 133.24C54.6086 133.24 56.2812 132.409 56.7133 133.45" stroke="#005249" stroke-width="0.5" stroke-linecap="round"/>
<path d="M58.7456 134.979C58.7456 134.979 57.49 134.881 57.468 135.477" stroke="#005249" stroke-width="0.5" stroke-linecap="round"/>
<path d="M57.9337 144.763C57.9337 144.763 53.4393 135.767 52.2055 135.96C51.6199 136.055 51.3498 136.624 51.2266 137.193C51.0751 137.93 51.1607 138.695 51.4714 139.382C52.1093 140.827 53.8224 143.559 57.9337 144.763Z" fill="#00AB55"/>
<path d="M52.2391 137.671C52.2391 137.671 56.9546 144.401 57.866 144.697" stroke="#005249" stroke-width="0.5" stroke-linecap="round"/>
<path d="M51.8052 138.723H52.9057" stroke="#005249" stroke-width="0.5" stroke-linecap="round"/>
<path d="M53.1237 141.184L54.8503 141.257" stroke="#005249" stroke-width="0.5" stroke-linecap="round"/>
<path d="M54.1753 139.214L53.988 140.099" stroke="#005249" stroke-width="0.5" stroke-linecap="round"/>
<path d="M56.01 141.907L55.9763 142.711" stroke="#005249" stroke-width="0.5" stroke-linecap="round"/>
<path d="M57.8005 144.763C57.8005 144.763 62.2933 135.767 63.5271 135.96C64.1144 136.055 64.3844 136.624 64.506 137.193C64.6574 137.93 64.5719 138.695 64.2612 139.382C63.6233 140.827 61.9085 143.559 57.8005 144.763Z" fill="#00AB55"/>
<path d="M63.4946 137.671C63.4946 137.671 58.7689 144.401 57.866 144.697" stroke="#005249" stroke-width="0.5" stroke-linecap="round"/>
<path d="M63.9289 138.723H62.8285" stroke="#005249" stroke-width="0.5" stroke-linecap="round"/>
<path d="M62.6107 141.184L60.8841 141.257" stroke="#005249" stroke-width="0.5" stroke-linecap="round"/>
<path d="M61.5591 139.214L61.7465 140.099" stroke="#005249" stroke-width="0.5" stroke-linecap="round"/>
<path d="M59.7242 141.907L59.758 142.711" stroke="#005249" stroke-width="0.5" stroke-linecap="round"/>
<path d="M50.0839 146.865C49.9616 146.766 49.8727 146.634 49.8291 146.484C49.786 146.33 49.8613 146.167 50.008 146.097C50.1767 146.036 50.3455 146.147 50.4805 146.263C50.6156 146.38 50.7691 146.503 50.9379 146.474C50.7557 146.312 50.6737 146.067 50.7219 145.83C50.7288 145.782 50.7493 145.736 50.781 145.699C50.8721 145.602 51.0375 145.644 51.1472 145.72C51.4847 145.959 51.5911 146.423 51.5928 146.841C51.6097 146.688 51.6097 146.533 51.5928 146.38C51.5837 146.223 51.6545 146.071 51.7818 145.976C51.8639 145.932 51.9566 145.91 52.0501 145.913C52.207 145.891 52.3659 145.936 52.4873 146.036C52.6055 146.194 52.5985 146.412 52.4704 146.562C52.3411 146.705 52.1881 146.825 52.0181 146.918C51.889 146.994 51.7788 147.098 51.6957 147.222C51.6855 147.238 51.6776 147.256 51.6721 147.275H50.6898C50.4699 147.166 50.2661 147.028 50.0839 146.865Z" fill="#00AB55"/>
<path d="M67.2063 143.241C67.0837 143.143 66.9947 143.011 66.9515 142.862C66.9082 142.708 66.9826 142.545 67.1287 142.475C67.2974 142.413 67.4662 142.525 67.6012 142.641C67.7363 142.757 67.8882 142.883 68.062 142.859C67.8797 142.697 67.7971 142.453 67.8443 142.216C67.8518 142.167 67.8728 142.122 67.905 142.085C67.9962 141.988 68.1616 142.03 68.2713 142.104C68.6173 142.345 68.7151 142.809 68.7168 143.227C68.7337 143.073 68.7337 142.918 68.7168 142.764C68.7015 142.609 68.7646 142.456 68.8856 142.355C68.9681 142.312 69.0606 142.291 69.154 142.294C69.3105 142.272 69.4691 142.316 69.5911 142.415C69.7097 142.574 69.702 142.793 69.5725 142.943C69.4442 143.086 69.2917 143.207 69.1219 143.299C68.9928 143.374 68.8826 143.478 68.7995 143.601C68.7896 143.618 68.7817 143.637 68.7759 143.656H67.8156C67.5941 143.546 67.389 143.406 67.2063 143.241V143.241Z" fill="#00AB55"/>
<path d="M61.4998 146.865C61.3776 146.766 61.2882 146.634 61.2432 146.485C61.2002 146.33 61.2755 146.167 61.4221 146.098C61.5909 146.036 61.7597 146.148 61.8947 146.264C62.0297 146.38 62.1799 146.506 62.3555 146.483C62.1735 146.32 62.091 146.076 62.1378 145.839C62.1452 145.79 62.1663 145.745 62.1985 145.707C62.2897 145.611 62.4551 145.653 62.5648 145.729C62.9107 145.968 63.0069 146.432 63.0103 146.85C63.0272 146.697 63.0272 146.542 63.0103 146.388C62.9971 146.232 63.0634 146.079 63.1875 145.98C63.2696 145.935 63.3623 145.914 63.4559 145.917C63.6127 145.895 63.7716 145.94 63.893 146.04C64.0114 146.198 64.0037 146.416 63.8744 146.566C63.7458 146.709 63.5934 146.829 63.4238 146.922C63.2947 146.998 63.1846 147.102 63.1015 147.226C63.0913 147.242 63.0833 147.26 63.0778 147.279H62.0989C61.8814 147.168 61.6799 147.029 61.4998 146.865V146.865Z" fill="#00AB55"/>
<ellipse opacity="0.1" cx="48.4874" cy="48.3348" rx="3.65059" ry="3.59265" fill="#00AB55"/>
<ellipse opacity="0.1" cx="224.028" cy="77.0448" rx="3.6506" ry="3.59265" fill="#00AB55"/>
<ellipse opacity="0.1" cx="158.405" cy="36.9257" rx="3.6506" ry="3.59265" fill="#00AB55"/>
<ellipse opacity="0.1" cx="55.7886" cy="68.1557" rx="6.11808" ry="6.02097" fill="#00AB55"/>
<path fill-rule="evenodd" clip-rule="evenodd" d="M117.111 116.617C112.609 116.617 108.959 120.209 108.959 124.64C108.959 129.07 112.609 132.662 117.111 132.662C121.613 132.662 125.263 129.07 125.263 124.64C125.263 120.209 121.613 116.617 117.111 116.617V116.617Z" fill="#007B55"/>
<path opacity="0.72" fill-rule="evenodd" clip-rule="evenodd" d="M117.111 117.55C121.089 117.55 124.315 120.724 124.315 124.639C124.315 128.554 121.089 131.728 117.111 131.728C113.133 131.728 109.907 128.554 109.907 124.639C109.911 120.725 113.134 117.553 117.111 117.55" fill="#00AB55"/>
<path fill-rule="evenodd" clip-rule="evenodd" d="M113.74 125.226L113.346 124.847C113.261 124.771 113.213 124.663 113.213 124.551C113.213 124.439 113.261 124.332 113.346 124.256L116.805 120.931C116.885 120.849 116.996 120.803 117.113 120.803C117.229 120.803 117.341 120.849 117.421 120.931L120.879 124.253C120.963 124.33 121.01 124.437 121.01 124.548C121.01 124.66 120.963 124.767 120.879 124.844L120.485 125.223C120.404 125.303 120.293 125.348 120.177 125.348C120.061 125.348 119.95 125.303 119.869 125.223L117.824 123.152V128.065C117.825 128.174 117.781 128.279 117.701 128.356C117.621 128.433 117.512 128.476 117.399 128.476H116.829C116.593 128.476 116.401 128.292 116.401 128.065V123.158L114.356 125.229C114.275 125.309 114.164 125.353 114.048 125.353C113.932 125.352 113.821 125.306 113.74 125.226V125.226Z" fill="#007B55"/>
<defs>
<linearGradient id="paint0_linear_0_2232" x1="186.423" y1="235.573" x2="283.47" y2="13.3197" gradientUnits="userSpaceOnUse">
<stop stop-color="#00AB55"/>
<stop offset="1" stop-color="#00AB55" stop-opacity="0.01"/>
</linearGradient>
<linearGradient id="paint1_linear_0_2232" x1="101.643" y1="76.2444" x2="75.075" y2="155.961" gradientUnits="userSpaceOnUse">
<stop stop-color="#00AB55"/>
<stop offset="1" stop-color="#007B55"/>
</linearGradient>
</defs>
</svg>
